<svg width="15" height="14" viewBox="0 0 15 14" fill="none" xmlns="http://www.w3.org/2000/svg">
<path d="M13.4775 13.6L10.9605 11.2267C9.87459 11.6929 8.69309 11.9278 7.5 11.9148C6.26991 11.9292 5.05253 11.6789 3.9405 11.1829C3.07851 10.7863 2.30448 10.2386 1.65975 9.56908C0.975369 8.87736 0.437473 8.0687 0.075 7.1866L0 6.96455L0.07875 6.74108C0.620858 5.43726 1.53319 4.29932 2.71575 3.45201L0.75 1.59851L1.80975 0.599976L14.5365 12.6L13.479 13.6H13.4775ZM3.777 4.45337C2.81844 5.08694 2.06149 5.95521 1.58775 6.96455C2.60356 9.17441 4.9469 10.5759 7.5 10.5004C8.28737 10.5065 9.07017 10.387 9.81525 10.1468L8.46525 8.87392C8.16475 9.01282 7.83466 9.08537 7.5 9.08608C6.26059 9.07874 5.25778 8.13319 5.25 6.96455C5.25036 6.64828 5.32732 6.33626 5.475 6.0523L3.777 4.45337ZM13.389 9.51745L12.345 8.53377C12.7842 8.06556 13.1442 7.53626 13.4122 6.96455C12.3978 4.75362 10.0536 3.35165 7.5 3.42868C7.31475 3.42868 7.12875 3.43504 6.94875 3.44706L5.625 2.19748C6.24122 2.07319 6.86984 2.01178 7.5 2.01433C8.73009 1.99993 9.94746 2.25025 11.0595 2.74625C11.9215 3.14279 12.6955 3.69047 13.3403 4.36003C14.0243 5.05091 14.5622 5.85858 14.925 6.73967L15 6.96455L14.9213 7.18802C14.5701 8.04941 14.0506 8.84101 13.3898 9.5217L13.389 9.51745Z" fill="#828282"/>
</svg>
