<svg width="48" height="48" viewBox="0 0 48 48" fill="none" xmlns="http://www.w3.org/2000/svg">
<path d="M31 24C31 24.8591 30.3036 25.5556 29.4444 25.5556H25.6247V29.3753C25.6247 30.2726 24.8973 31 24 31C23.1027 31 22.3753 30.2726 22.3753 29.3753V25.5556H18.5556C17.6964 25.5556 17 24.8591 17 24C17 23.1409 17.6964 22.4444 18.5556 22.4444H22.3753V18.6247C22.3753 17.7274 23.1027 17 24 17C24.8973 17 25.6247 17.7274 25.6247 18.6247V22.4444H29.4444C30.3036 22.4444 31 23.1409 31 24Z" fill="#828282"/>
</svg>
