<svg width="48" height="48" viewBox="0 0 48 48" fill="none" xmlns="http://www.w3.org/2000/svg">
<path d="M14.4 33H12C12 29.0236 15.2235 25.8 19.2 25.8C23.1765 25.8 26.4 29.0236 26.4 33H24C24 30.349 21.851 28.2 19.2 28.2C16.549 28.2 14.4 30.349 14.4 33ZM32.4 29.4H30V25.8H26.4V23.4H30V19.8H32.4V23.4H36V25.8H32.4V29.4ZM19.2 24.6C16.549 24.6 14.4 22.451 14.4 19.8C14.4 17.149 16.549 15 19.2 15C21.851 15 24 17.149 24 19.8C23.9967 22.4496 21.8496 24.5967 19.2 24.6ZM19.2 17.4C17.8889 17.4013 16.8215 18.4546 16.8027 19.7656C16.7839 21.0766 17.8207 22.16 19.1312 22.1989C20.4418 22.2378 21.541 21.2178 21.6 19.908V20.388V19.8C21.6 18.4745 20.5255 17.4 19.2 17.4Z" fill="#828282"/>
</svg>
