<svg width="48" height="48" viewBox="0 0 48 48" fill="none" xmlns="http://www.w3.org/2000/svg">
<path d="M30 32.5001H15C14.7346 32.5027 14.4794 32.398 14.2923 32.2097C14.1053 32.0214 14.0024 31.7654 14.007 31.5H14V17.5C14 16.3954 14.8954 15.5 16 15.5H22C22.2234 15.5002 22.4402 15.5752 22.616 15.713L24.9 17.5H30C31.1046 17.5 32 18.3954 32 19.5V23.5H33C33.3361 23.5 33.6498 23.669 33.8348 23.9496C34.0198 24.2302 34.0514 24.5851 33.919 24.894L30.919 31.894C30.7614 32.2616 30.4 32.5001 30 32.5001ZM18.66 25.5L16.517 30.5H29.341L31.484 25.5H18.66ZM16 19.5V26.63L17.081 24.106C17.2386 23.7384 17.6 23.5 18 23.5H30V19.5H16Z" fill="#828282"/>
</svg>
