<svg width="48" height="48" viewBox="0 0 48 48" fill="none" xmlns="http://www.w3.org/2000/svg">
<path d="M20.7 14C17.6624 14 15.2 16.4873 15.2 19.5556C15.2 22.6238 17.6624 25.1111 20.7 25.1111C23.7376 25.1111 26.2 22.6238 26.2 19.5556C26.2 16.4873 23.7376 14 20.7 14ZM17.4 19.5556C17.4 17.7146 18.8775 16.2222 20.7 16.2222C22.5225 16.2222 24 17.7146 24 19.5556C24 21.3965 22.5225 22.8889 20.7 22.8889C18.8775 22.8889 17.4 21.3965 17.4 19.5556Z" fill="#828282"/>
<path d="M29.3993 19.7981C29.0898 19.6387 28.7474 19.5556 28.4 19.5556V17.3334C29.0948 17.3334 29.7796 17.4995 30.3986 17.8183C30.4668 17.8534 30.5339 17.8902 30.6 17.9288C31.1339 18.2402 31.5979 18.6619 31.961 19.1673C32.3691 19.7352 32.6382 20.3927 32.7464 21.086C32.8545 21.7792 32.7986 22.4884 32.5832 23.1556C32.3678 23.8228 31.9991 24.429 31.5072 24.9246C31.0153 25.4202 30.4142 25.791 29.7531 26.0068C29.1648 26.1989 28.5439 26.2633 27.9309 26.1969C27.855 26.1887 27.7793 26.1785 27.7037 26.1662C27.0182 26.0552 26.3684 25.782 25.8074 25.3688L25.8063 25.3679L27.1031 23.5729C27.3837 23.7797 27.7089 23.9164 28.0519 23.9719C28.3949 24.0275 28.746 24.0002 29.0765 23.8923C29.4071 23.7843 29.7076 23.5989 29.9535 23.3511C30.1995 23.1034 30.3839 22.8003 30.4915 22.4667C30.5992 22.1331 30.6272 21.7785 30.5731 21.4319C30.519 21.0853 30.3845 20.7565 30.1805 20.4726C29.9764 20.1886 29.7087 19.9575 29.3993 19.7981Z" fill="#828282"/>
<path d="M32.7979 34C32.7979 33.4166 32.6842 32.839 32.4631 32.3C32.2421 31.761 31.9182 31.2713 31.5098 30.8588C31.1014 30.4463 30.6166 30.1191 30.083 29.8958C29.5494 29.6726 28.9775 29.5577 28.4 29.5577V27.3333C29.1503 27.3333 29.8942 27.4626 30.6 27.7146C30.7095 27.7537 30.8181 27.7958 30.9257 27.8408C31.7265 28.1758 32.454 28.6669 33.0669 29.286C33.6798 29.905 34.1659 30.6399 34.4976 31.4488C34.5422 31.5574 34.5838 31.6671 34.6225 31.7778C34.8721 32.4907 35 33.2421 35 34H32.7979Z" fill="#828282"/>
<path d="M28.4 34H26.2C26.2 30.9318 23.7376 28.4444 20.7 28.4444C17.6624 28.4444 15.2 30.9318 15.2 34H13C13 29.7045 16.4474 26.2222 20.7 26.2222C24.9526 26.2222 28.4 29.7045 28.4 34Z" fill="#828282"/>
</svg>
