<svg width="48" height="48" viewBox="0 0 48 48" fill="none" xmlns="http://www.w3.org/2000/svg">
<path d="M25.7828 33.5H22.2185C21.7584 33.5 21.3603 33.1894 21.2619 32.7533L20.8633 30.9635C20.3317 30.7375 19.8276 30.4549 19.3603 30.1209L17.5615 30.6766C17.1228 30.8123 16.6459 30.6332 16.4158 30.2463L14.6298 27.2528C14.4022 26.8657 14.4806 26.3774 14.8188 26.0758L16.2141 24.8407C16.1507 24.2813 16.1507 23.7168 16.2141 23.1573L14.8188 21.9252C14.4801 21.6234 14.4017 21.1345 14.6298 20.7472L16.4119 17.7519C16.642 17.3649 17.1189 17.1858 17.5576 17.3215L19.3564 17.8772C19.5953 17.7054 19.8441 17.5469 20.1015 17.4023C20.3486 17.2671 20.6029 17.1447 20.8633 17.0355L21.2628 15.2476C21.3608 14.8116 21.7585 14.5005 22.2185 14.5H25.7828C26.2428 14.5005 26.6405 14.8116 26.7385 15.2476L27.1419 17.0365C27.4169 17.1538 27.6846 17.2864 27.9439 17.4336C28.1857 17.5693 28.4194 17.718 28.644 17.8791L30.4438 17.3234C30.8821 17.1882 31.3584 17.3673 31.5884 17.7537L33.3706 20.7491C33.5981 21.1362 33.5197 21.6245 33.1816 21.9261L31.7862 23.1611C31.8497 23.7206 31.8497 24.2851 31.7862 24.8446L33.1816 26.0795C33.5197 26.3812 33.5981 26.8695 33.3706 27.2566L31.5884 30.2519C31.3584 30.6384 30.8821 30.8175 30.4438 30.6823L28.644 30.1265C28.4163 30.2893 28.1796 30.4399 27.9351 30.5778C27.6783 30.7221 27.4136 30.8525 27.1419 30.9683L26.7385 32.7533C26.6401 33.189 26.2425 33.4996 25.7828 33.5ZM19.7118 28.0175L20.5147 28.5876C20.6958 28.7169 20.8844 28.8358 21.0797 28.9438C21.2635 29.0471 21.4528 29.1409 21.6467 29.225L22.5603 29.6136L23.0078 31.6H24.9955L25.443 29.6126L26.3566 29.2241C26.7554 29.0534 27.134 28.8413 27.4856 28.5913L28.2895 28.0213L30.2881 28.6389L31.282 26.9688L29.7319 25.5979L29.8416 24.6365C29.8897 24.216 29.8897 23.7916 29.8416 23.3711L29.7319 22.4097L31.2829 21.036L30.2881 19.3649L28.2895 19.9825L27.4856 19.4124C27.1339 19.1614 26.7554 18.9477 26.3566 18.775L25.443 18.3865L24.9955 16.4H23.0078L22.5583 18.3874L21.6467 18.775C21.4526 18.8577 21.2634 18.9506 21.0797 19.0533C20.8856 19.161 20.6979 19.2793 20.5177 19.4077L19.7138 19.9777L17.7162 19.3602L16.7204 21.036L18.2704 22.405L18.1608 23.3673C18.1126 23.7878 18.1126 24.2122 18.1608 24.6327L18.2704 25.5941L16.7204 26.965L17.7143 28.635L19.7118 28.0175ZM23.9968 27.8C21.8336 27.8 20.08 26.0987 20.08 24C20.08 21.9013 21.8336 20.2 23.9968 20.2C26.1599 20.2 27.9135 21.9013 27.9135 24C27.9108 26.0976 26.1588 27.7974 23.9968 27.8ZM23.9968 22.1C22.9269 22.1011 22.0559 22.9349 22.0406 23.9728C22.0252 25.0106 22.8712 25.8684 23.9406 25.8992C25.01 25.93 25.907 25.1224 25.9551 24.0855V24.4655V24C25.9551 22.9507 25.0783 22.1 23.9968 22.1Z" fill="#828282"/>
</svg>
