<svg width="20" height="20" viewBox="0 0 20 20" fill="none" xmlns="http://www.w3.org/2000/svg">
<path d="M0.971699 18.1771C2.36755 18.1771 3.50245 17.1126 3.50245 15.8042V9.93144C3.50245 8.32398 4.89642 7.01734 6.60918 7.01734C8.32291 7.01734 9.71688 8.32398 9.71688 9.93144V15.8042C9.71688 17.1126 10.8518 18.1771 12.2467 18.1771C13.6416 18.1771 14.7765 17.1126 14.7765 15.8042V12.7726H13.8291C12.5412 12.7726 11.4969 11.793 11.4969 10.585V5.2716C11.4969 4.52672 11.9194 3.90121 12.5256 3.50613V0.911445C12.5257 0.407656 12.9603 0 13.4973 0C14.0344 0 14.469 0.407656 14.469 0.911445V3.08398H17.0283V0.911445C17.0283 0.407656 17.4629 0 18 0C18.5371 0 18.9716 0.407656 18.9716 0.911445V3.50637C19.5778 3.90144 20 4.52684 20 5.2716V10.585C20 11.793 18.9558 12.7726 17.6678 12.7726H16.7199V16.1637C16.7199 16.2705 16.6999 16.3738 16.6639 16.4699C16.3223 18.4691 14.4719 20 12.2467 20C9.78047 20 7.77353 18.1184 7.77353 15.8042V9.93144C7.77353 9.32976 7.25164 8.84019 6.60923 8.84019C5.96777 8.84019 5.44584 9.32973 5.44584 9.93144V15.8042C5.44584 18.1184 3.4389 20 0.971699 20C0.434607 20 2.38419e-06 19.5923 2.38419e-06 19.0886C2.38419e-06 18.5848 0.434607 18.1771 0.971699 18.1771Z" fill="#F2C94C"/>
</svg>
