<svg width="34" height="34" viewBox="0 0 34 34" fill="none" xmlns="http://www.w3.org/2000/svg">
<path d="M33.9998 17H31.4998V4.875H33.9998V17ZM29.8331 17H27.3331V2.4375H29.8331V17ZM25.6664 17H23.1664V0H25.6664V17ZM21.4998 17H18.9998V6.5H21.4998V17Z" fill="#6FCF97"/>
<path fill-rule="evenodd" clip-rule="evenodd" d="M16.9998 7.27051L28.5741 13.9529V27.3177L16.9998 34.0001L5.42554 27.3177V13.9529L16.9998 7.27051Z" fill="#D5A889"/>
<path fill-rule="evenodd" clip-rule="evenodd" d="M5.42554 13.9526V27.3175L16.9998 33.9999V20.6351L5.42554 13.9526Z" fill="#937661"/>
<path fill-rule="evenodd" clip-rule="evenodd" d="M16.9998 7.27051L28.5741 13.9529L16.9998 20.6353L5.42554 13.9529L16.9998 7.27051Z" fill="#E8BF9D"/>
<path fill-rule="evenodd" clip-rule="evenodd" d="M9.60303 21.9334L12.8228 23.7923V18.2237L9.60303 16.3648V21.9334ZM21.1773 9.68237L24.397 11.5413L12.8228 18.2237L9.60303 16.3648L21.1773 9.68237Z" fill="#EFC7A4"/>
<path fill-rule="evenodd" clip-rule="evenodd" d="M9.60303 16.3652V21.9339L12.8228 23.7927V18.2241L9.60303 16.3652Z" fill="#D5A889"/>
</svg>
