<svg width="34" height="34" viewBox="0 0 34 34" fill="none" xmlns="http://www.w3.org/2000/svg">
<path d="M26.323 16C25.8736 16.0013 25.4424 15.8227 25.1255 15.5041L18.4957 8.87336C18.1459 8.52449 17.9665 8.03981 18.0049 7.54723L18.428 1.99048C18.4884 1.15467 19.1543 0.490527 19.9903 0.432455L25.547 0.0093092C25.5901 0 25.6341 0 25.6773 0C26.1257 0.00115116 26.5555 0.179396 26.8731 0.495927L33.5038 7.12577C33.8213 7.44321 33.9998 7.87383 33.9998 8.32285C33.9998 8.77187 33.8213 9.20249 33.5038 9.51993L27.5197 15.5041C27.203 15.8225 26.7721 16.0011 26.323 16ZM25.6765 1.69258L20.1155 2.11573L19.6924 7.67671L26.323 14.3074L32.3063 8.32412L25.6765 1.69258ZM22.7322 6.42505C21.9247 6.42522 21.2296 5.85495 21.0719 5.063C20.9142 4.27105 21.3379 3.47799 22.0839 3.16884C22.8298 2.85968 23.6903 3.12054 24.139 3.79188C24.5878 4.46321 24.4998 5.35804 23.9289 5.92912C23.6122 6.24759 23.1813 6.42617 22.7322 6.42505Z" fill="#BDBDBD"/>
<path fill-rule="evenodd" clip-rule="evenodd" d="M16.9998 7.27051L28.5741 13.9529V27.3177L16.9998 34.0001L5.42554 27.3177V13.9529L16.9998 7.27051Z" fill="#D5A889"/>
<path fill-rule="evenodd" clip-rule="evenodd" d="M5.42554 13.9526V27.3175L16.9998 33.9999V20.6351L5.42554 13.9526Z" fill="#937661"/>
<path fill-rule="evenodd" clip-rule="evenodd" d="M16.9998 7.27051L28.5741 13.9529L16.9998 20.6353L5.42554 13.9529L16.9998 7.27051Z" fill="#E8BF9D"/>
<path fill-rule="evenodd" clip-rule="evenodd" d="M9.60303 21.9334L12.8228 23.7923V18.2237L9.60303 16.3648V21.9334ZM21.1773 9.68237L24.397 11.5413L12.8228 18.2237L9.60303 16.3648L21.1773 9.68237Z" fill="#EFC7A4"/>
<path fill-rule="evenodd" clip-rule="evenodd" d="M9.60303 16.3652V21.9339L12.8228 23.7927V18.2241L9.60303 16.3652Z" fill="#D5A889"/>
</svg>
