<svg width="34" height="34" viewBox="0 0 34 34" fill="none" xmlns="http://www.w3.org/2000/svg">
<path d="M25.4913 17C20.7979 16.9953 16.9966 13.1876 16.9998 8.49433C17.0029 3.80102 20.8093 -0.00156191 25.5026 4.8129e-07C30.1959 0.00156384 33.9998 3.80668 33.9998 8.5C33.9969 13.1966 30.1878 17.0019 25.4913 17ZM18.6998 8.64619C18.74 12.3872 21.7947 15.3931 25.5359 15.3731C29.2771 15.3529 32.2994 12.3144 32.2994 8.57309C32.2994 4.83183 29.2771 1.7933 25.5359 1.77309C21.7947 1.75308 18.74 4.75894 18.6998 8.5V8.64619ZM26.3498 12.75H24.6498V11.05H26.3498V12.75ZM26.3498 9.34999H24.6498V4.25H26.3498V9.34999Z" fill="#FF8888"/>
<path fill-rule="evenodd" clip-rule="evenodd" d="M16.9998 7.27051L28.5741 13.9529V27.3177L16.9998 34.0001L5.42554 27.3177V13.9529L16.9998 7.27051Z" fill="#D5A889"/>
<path fill-rule="evenodd" clip-rule="evenodd" d="M5.42554 13.9526V27.3175L16.9998 33.9999V20.6351L5.42554 13.9526Z" fill="#937661"/>
<path fill-rule="evenodd" clip-rule="evenodd" d="M16.9998 7.27051L28.5741 13.9529L16.9998 20.6353L5.42554 13.9529L16.9998 7.27051Z" fill="#E8BF9D"/>
<path fill-rule="evenodd" clip-rule="evenodd" d="M9.60303 21.9334L12.8228 23.7923V18.2237L9.60303 16.3648V21.9334ZM21.1773 9.68237L24.397 11.5413L12.8228 18.2237L9.60303 16.3648L21.1773 9.68237Z" fill="#EFC7A4"/>
<path fill-rule="evenodd" clip-rule="evenodd" d="M9.60303 16.3652V21.9339L12.8228 23.7927V18.2241L9.60303 16.3652Z" fill="#D5A889"/>
</svg>
