<svg width="34" height="34" viewBox="0 0 34 34" fill="none" xmlns="http://www.w3.org/2000/svg">
<path d="M25.4998 17C20.8053 17 16.9998 13.1944 16.9998 8.5C16.9998 3.80558 20.8053 0 25.4998 0C30.1942 0 33.9998 3.80558 33.9998 8.5C33.9946 13.1923 30.192 16.9948 25.4998 17ZM25.4998 1.7C21.7442 1.7 18.6998 4.74446 18.6998 8.5C18.6998 12.2555 21.7442 15.3 25.4998 15.3C29.2553 15.3 32.2998 12.2555 32.2998 8.5C32.2955 4.74621 29.2535 1.70422 25.4998 1.7ZM29.7498 9.35H24.6498V4.25H26.3498V7.65H29.7498V9.35Z" fill="#F2994A"/>
<path fill-rule="evenodd" clip-rule="evenodd" d="M16.9998 7.27051L28.5741 13.9529V27.3177L16.9998 34.0001L5.42554 27.3177V13.9529L16.9998 7.27051Z" fill="#D5A889"/>
<path fill-rule="evenodd" clip-rule="evenodd" d="M5.42554 13.9526V27.3175L16.9998 33.9999V20.6351L5.42554 13.9526Z" fill="#937661"/>
<path fill-rule="evenodd" clip-rule="evenodd" d="M16.9998 7.27051L28.5741 13.9529L16.9998 20.6353L5.42554 13.9529L16.9998 7.27051Z" fill="#E8BF9D"/>
<path fill-rule="evenodd" clip-rule="evenodd" d="M9.60303 21.9334L12.8228 23.7923V18.2237L9.60303 16.3648V21.9334ZM21.1773 9.68237L24.397 11.5413L12.8228 18.2237L9.60303 16.3648L21.1773 9.68237Z" fill="#EFC7A4"/>
<path fill-rule="evenodd" clip-rule="evenodd" d="M9.60303 16.3652V21.9339L12.8228 23.7927V18.2241L9.60303 16.3652Z" fill="#D5A889"/>
</svg>
