<svg width="20" height="20" viewBox="0 0 20 20" fill="none" xmlns="http://www.w3.org/2000/svg">
<path d="M6.99516 18.3205C5.73737 18.3205 4.71402 17.2206 4.71402 15.9611L4.71011 12.2948H5.56437C6.72568 12.2948 7.66732 11.3519 7.66732 10.1891V5.07442C7.66732 4.3574 7.28636 3.75529 6.73969 3.37499V0.877355C6.73965 0.39241 6.34777 1.86469e-06 5.8635 1.86469e-06C5.3792 1.86469e-06 4.98732 0.39241 4.98732 0.877355V2.96863H2.67963V0.877355C2.67963 0.39241 2.28774 1.86469e-06 1.80344 1.86469e-06C1.31914 1.86469e-06 0.927293 0.39241 0.927293 0.877355V3.37522C0.380732 3.75552 -1.86221e-06 4.35751 -1.86221e-06 5.07442V10.1891C-1.86221e-06 11.3519 0.941525 12.2948 2.10295 12.2948H2.95774L2.96165 16.3072C2.96165 16.41 2.98925 16.6159 2.98925 16.6159C3.29728 18.5402 4.98864 20 6.99512 20H15.9445C17.9433 20 19.6657 18.5458 19.9725 16.6289C19.9725 16.6289 20 16.4238 20 16.3214L19.9899 3.67856C19.9899 3.57615 19.9625 3.37111 19.9625 3.37111C19.6556 1.45415 17.9707 0 15.972 0H8.42226C8.42226 0 7.67124 0 7.67124 0.836378C7.67124 1.67276 8.42226 1.67276 8.42226 1.67276H16.0095C17.2624 1.67276 18.357 2.76873 18.357 4.02335L18.3295 15.9767C18.3295 17.2313 17.1974 18.3272 15.9444 18.3272L6.99516 18.3205Z" fill="#6FCF97"/>
<path d="M15.8424 11.5942C15.7874 11.4079 15.7206 11.2457 15.6422 11.108C15.5638 10.9702 15.4516 10.8357 15.3052 10.7042C15.1591 10.5727 15.0276 10.4669 14.911 10.3864C14.7944 10.3058 14.6344 10.2158 14.4309 10.1161C14.2275 10.0164 14.0664 9.94229 13.9478 9.89352C13.829 9.84482 13.6573 9.77805 13.4326 9.69328C13.2333 9.61703 13.085 9.55873 12.9874 9.51849C12.8899 9.4782 12.7617 9.42101 12.6027 9.34679C12.4438 9.27268 12.3251 9.20694 12.2467 9.14976C12.1683 9.09257 12.0846 9.02264 11.9955 8.94C11.9065 8.85736 11.844 8.7694 11.8079 8.67616C11.7719 8.5829 11.7539 8.48115 11.7539 8.37094C11.7539 8.08278 11.881 7.84746 12.1354 7.66526C12.3897 7.48305 12.7183 7.39191 13.1211 7.39191C13.299 7.39191 13.4804 7.41625 13.6647 7.46504C13.849 7.51383 14.0069 7.56879 14.1384 7.6303C14.2699 7.6918 14.3938 7.75963 14.5105 7.83377C14.627 7.90797 14.7097 7.96409 14.7585 8.00223C14.8072 8.0404 14.8381 8.06581 14.8507 8.07855C14.9059 8.12093 14.963 8.13574 15.0223 8.12306C15.0859 8.11883 15.1347 8.08487 15.1687 8.02136L15.6838 7.0931C15.7347 7.00837 15.7242 6.92782 15.6521 6.85148C15.6266 6.82605 15.5949 6.79641 15.5565 6.76247C15.5184 6.72853 15.4357 6.66709 15.3085 6.57804C15.1813 6.48905 15.0467 6.40957 14.9048 6.33963C14.7627 6.26975 14.5783 6.19871 14.3515 6.12669C14.1248 6.05456 13.8905 6.00586 13.6488 5.98045V4.86141C13.6488 4.80211 13.6298 4.75334 13.5917 4.71517C13.5536 4.67709 13.5048 4.65796 13.4454 4.65796H12.5869C12.5318 4.65796 12.4841 4.67807 12.4438 4.71835C12.4035 4.75864 12.3834 4.80629 12.3834 4.86141V6.00584C11.7178 6.13295 11.1773 6.41694 10.7619 6.85776C10.3465 7.2986 10.1387 7.81139 10.1387 8.39637C10.1387 8.57014 10.1568 8.73544 10.1928 8.89219C10.2288 9.04908 10.2734 9.19002 10.3264 9.31504C10.3793 9.44014 10.4546 9.56302 10.5521 9.68386C10.6496 9.80464 10.7418 9.90851 10.8287 9.99535C10.9156 10.0822 11.029 10.1723 11.1689 10.2655C11.3088 10.3588 11.4286 10.4341 11.5282 10.4913C11.6279 10.5483 11.7603 10.6142 11.9256 10.6882C12.091 10.7624 12.2214 10.8185 12.3167 10.8568C12.4121 10.8949 12.5425 10.9479 12.7079 11.0156C12.9368 11.1046 13.1064 11.1735 13.2166 11.2223C13.3269 11.271 13.4667 11.3388 13.6364 11.4257C13.8059 11.5125 13.9298 11.592 14.0083 11.6641C14.0867 11.7362 14.1577 11.8252 14.2213 11.9312C14.285 12.0371 14.3168 12.1494 14.3168 12.2682C14.3168 12.603 14.1865 12.8615 13.9257 13.0436C13.665 13.2259 13.3629 13.3171 13.0196 13.3171C12.8629 13.3171 12.7059 13.3002 12.5491 13.2663C11.998 13.156 11.4829 12.8911 11.0039 12.4715L10.9912 12.4588C10.953 12.4123 10.9021 12.3931 10.8386 12.4017C10.7708 12.4101 10.722 12.4356 10.6924 12.4781L10.0374 13.3363C9.97377 13.4211 9.97807 13.5079 10.0501 13.5969C10.0713 13.6224 10.1084 13.6606 10.1614 13.7114C10.2145 13.7624 10.3131 13.8417 10.4571 13.95C10.6012 14.0582 10.7581 14.1598 10.9277 14.2552C11.0973 14.3506 11.3124 14.4448 11.5731 14.5381C11.8339 14.6313 12.1041 14.6969 12.3839 14.7351V15.8477C12.3839 15.9029 12.404 15.9505 12.4443 15.9908C12.4846 16.0311 12.5322 16.0512 12.5873 16.0512H13.4458C13.5053 16.0512 13.554 16.0321 13.5922 15.994C13.6303 15.9559 13.6492 15.9072 13.6492 15.8477V14.7351C14.3234 14.6249 14.8713 14.3356 15.2931 13.8672C15.7148 13.3988 15.9258 12.8404 15.9258 12.1919C15.9256 11.98 15.8981 11.7808 15.8424 11.5942Z" fill="#6FCF97"/>
</svg>
